<mxfile host="app.diagrams.net" modified="2023-03-19T10:26:13.371Z" agent="5.0 (Macintosh; Intel Mac OS X 10_15_7) AppleWebKit/537.36 (KHTML, like Gecko) Chrome/110.0.0.0 Safari/537.36" version="20.6.0" etag="ItN-Sup1kAFTus-Rd2HU" type="github">
  <diagram id="ALmp_3lIYiB9wRcWAEAn" name="Page-1">
    <mxGraphModel dx="1018" dy="610" grid="1" gridSize="10" guides="1" tooltips="1" connect="1" arrows="1" fold="1" page="1" pageScale="1" pageWidth="827" pageHeight="1169" math="0" shadow="0">
      <root>
        <mxCell id="0" />
        <mxCell id="1" parent="0" />
        <mxCell id="9Z8Uwz8cc-8YtF7DHz2A-1" value="Customer Service&lt;br&gt;&lt;br&gt;" style="whiteSpace=wrap;html=1;aspect=fixed;" vertex="1" parent="1">
          <mxGeometry x="180" y="270" width="80" height="80" as="geometry" />
        </mxCell>
        <mxCell id="9Z8Uwz8cc-8YtF7DHz2A-11" style="edgeStyle=orthogonalEdgeStyle;rounded=0;orthogonalLoop=1;jettySize=auto;html=1;exitX=0;exitY=0.5;exitDx=0;exitDy=0;entryX=1;entryY=0.5;entryDx=0;entryDy=0;startArrow=classic;startFill=1;endArrow=block;endFill=1;" edge="1" parent="1" source="9Z8Uwz8cc-8YtF7DHz2A-2" target="9Z8Uwz8cc-8YtF7DHz2A-3">
          <mxGeometry relative="1" as="geometry" />
        </mxCell>
        <mxCell id="9Z8Uwz8cc-8YtF7DHz2A-2" value="LoanService" style="whiteSpace=wrap;html=1;aspect=fixed;" vertex="1" parent="1">
          <mxGeometry x="180" y="70" width="80" height="80" as="geometry" />
        </mxCell>
        <mxCell id="9Z8Uwz8cc-8YtF7DHz2A-4" style="edgeStyle=orthogonalEdgeStyle;rounded=0;orthogonalLoop=1;jettySize=auto;html=1;entryX=0.5;entryY=1;entryDx=0;entryDy=0;" edge="1" parent="1" source="9Z8Uwz8cc-8YtF7DHz2A-3" target="9Z8Uwz8cc-8YtF7DHz2A-1">
          <mxGeometry relative="1" as="geometry" />
        </mxCell>
        <mxCell id="9Z8Uwz8cc-8YtF7DHz2A-3" value="Front End" style="whiteSpace=wrap;html=1;aspect=fixed;" vertex="1" parent="1">
          <mxGeometry x="10" y="130" width="80" height="80" as="geometry" />
        </mxCell>
        <mxCell id="9Z8Uwz8cc-8YtF7DHz2A-7" style="edgeStyle=orthogonalEdgeStyle;rounded=0;orthogonalLoop=1;jettySize=auto;html=1;entryX=0.5;entryY=1;entryDx=0;entryDy=0;" edge="1" parent="1" source="9Z8Uwz8cc-8YtF7DHz2A-5" target="9Z8Uwz8cc-8YtF7DHz2A-2">
          <mxGeometry relative="1" as="geometry" />
        </mxCell>
        <mxCell id="9Z8Uwz8cc-8YtF7DHz2A-8" style="edgeStyle=orthogonalEdgeStyle;rounded=0;orthogonalLoop=1;jettySize=auto;html=1;endArrow=block;endFill=1;startArrow=classic;startFill=1;" edge="1" parent="1" source="9Z8Uwz8cc-8YtF7DHz2A-5" target="9Z8Uwz8cc-8YtF7DHz2A-1">
          <mxGeometry relative="1" as="geometry" />
        </mxCell>
        <mxCell id="9Z8Uwz8cc-8YtF7DHz2A-5" value="Message Broker" style="rounded=0;whiteSpace=wrap;html=1;" vertex="1" parent="1">
          <mxGeometry x="550" y="210" width="120" height="60" as="geometry" />
        </mxCell>
      </root>
    </mxGraphModel>
  </diagram>
</mxfile>
